<svg fill="none" height="20" viewBox="0 0 20 20" width="20" xmlns="http://www.w3.org/2000/svg" xmlns:xlink="http://www.w3.org/1999/xlink"><clipPath id="a"><path d="m0 .293457h20v19.6139h-20z"/></clipPath><g clip-path="url(#a)"><path d="m15.8333.293457h-11.66663c-2.30084 0-4.16667 1.829813-4.16667 4.086233v11.44141c0 2.2564 1.86583 4.0863 4.16667 4.0863h11.66663c2.3017 0 4.1667-1.8299 4.1667-4.0863v-11.44141c0-2.25642-1.865-4.086233-4.1667-4.086233zm-9.16663 15.527643h-2.5v-8.98968h2.5zm-1.25-10.02594c-.805 0-1.45834-.64563-1.45834-1.44163 0-.79599.65334-1.44162 1.45834-1.44162s1.45833.64563 1.45833 1.44162c0 .796-.6525 1.44163-1.45833 1.44163zm11.25003 10.02594h-2.5v-4.5798c0-2.7525-3.3334-2.5441-3.3334 0v4.5798h-2.49997v-8.98968h2.49997v1.44244c1.1634-2.1134 5.8334-2.26949 5.8334 2.02354z" fill="#79b2ff"/></g></svg>