<svg height="24" viewBox="0 0 1024 1024" width="24" xmlns="http://www.w3.org/2000/svg"><path d="m260.096 155.648c0 27.307008-9.899008 50.516992-29.696 69.632s-45.396992 28.672-76.8 28.672c-30.036992 0-54.612992-9.556992-73.728-28.672s-28.672-42.324992-28.672-69.632c0-28.672 9.556992-52.224 28.672-70.656s44.372992-27.648 75.776-27.648 56.32 9.216 74.752 27.648 28.331008 41.984 29.696 70.656zm-202.752 808.96v-632.832h196.608v632.832zm313.344-430.08c0-58.708992-1.364992-126.292992-4.096-202.752h169.984s10.24 88.064 10.24 88.064h4.096c40.96-68.267008 105.812992-102.4 194.56-102.4 68.267008 0 123.220992 22.868992 164.864 68.608s62.464 113.664 62.464 203.776v374.784h-196.608v-350.208c0-91.476992-33.451008-137.216-100.352-137.216-47.787008 0-81.236992 24.576-100.352 73.728-4.096 8.192-6.144 24.576-6.144 49.152v364.544h-198.656z" fill="#505050"/></svg>