<svg width="231" height="248" viewBox="0 0 231 248" fill="none" xmlns="http://www.w3.org/2000/svg">
<g clip-path="url(#clip0_501_12)">
<path d="M225.928 148.36C222.535 165.817 195.536 184.923 164.528 188.625C148.359 190.555 132.439 192.328 115.463 191.549C87.6998 190.277 65.7932 184.923 65.7932 184.923C65.7932 187.625 65.9598 190.199 66.2932 192.605C69.9025 220.004 93.4612 221.645 115.777 222.411C138.301 223.181 158.357 216.857 158.357 216.857L159.283 237.22C159.283 237.22 143.528 245.68 115.463 247.236C99.9865 248.087 80.7705 246.847 58.3892 240.923C9.84784 228.075 1.49983 176.332 0.222501 123.831C-0.166832 108.243 0.073168 93.544 0.073168 81.2507C0.073168 27.5653 35.2478 11.8293 35.2478 11.8293C52.9838 3.684 83.4172 0.258667 115.056 0H115.833C147.472 0.258667 177.925 3.684 195.66 11.8293C195.66 11.8293 230.833 27.5653 230.833 81.2507C230.833 81.2507 231.275 120.86 225.928 148.36Z" fill="#505050"/>
<path d="M189.344 85.4155V150.419H163.59V87.3261C163.59 74.0261 157.994 67.2755 146.801 67.2755C134.425 67.2755 128.222 75.2835 128.222 91.1181V125.653H102.621V91.1181C102.621 75.2835 96.4172 67.2755 84.0412 67.2755C72.8478 67.2755 67.2518 74.0261 67.2518 87.3261V150.419H41.4985V85.4155C41.4985 72.1301 44.8812 61.5728 51.6758 53.7621C58.6825 45.9515 67.8585 41.9474 79.2492 41.9474C92.4278 41.9474 102.408 47.0128 109.006 57.1448L115.421 67.8981L121.837 57.1448C128.434 47.0128 138.414 41.9474 151.594 41.9474C162.984 41.9474 172.16 45.9515 179.168 53.7621C185.961 61.5728 189.344 72.1301 189.344 85.4155Z" fill="white"/>
</g>
<defs>
<clipPath id="clip0_501_12">
<rect width="230.842" height="247.477" fill="white"/>
</clipPath>
</defs>
</svg>
