<svg fill="none" height="248" viewBox="0 0 231 248" width="231" xmlns="http://www.w3.org/2000/svg" xmlns:xlink="http://www.w3.org/1999/xlink"><clipPath id="a"><path d="m0 0h230.842v247.477h-230.842z"/></clipPath><g clip-path="url(#a)"><path clip-rule="evenodd" d="m164.528 188.625c31.008-3.702 58.007-22.808 61.4-40.265 5.347-27.5 4.905-67.1093 4.905-67.1093 0-53.6854-35.173-69.4214-35.173-69.4214-17.735-8.1453-48.188-11.570633-79.827-11.8293h-.777c-31.6388.258667-62.0722 3.684-79.8082 11.8293 0 0-35.174632 15.736-35.174632 69.4214 0 3.2546-.0168217 6.6778-.0343336 10.2414-.04863424 9.8969-.102592 20.8779.1836666 32.3389 1.277329 52.501 9.625339 104.244 58.166699 117.092 22.3813 5.924 41.5973 7.164 57.0738 6.313 28.065-1.556 43.82-10.016 43.82-10.016l-.926-20.363s-20.056 6.324-42.58 5.554c-22.3158-.766-45.8745-2.407-49.4838-29.806-.3334-2.406-.5-4.98-.5-7.682 0 0 21.9066 5.354 49.6698 6.626 16.976.779 32.896-.994 49.065-2.924zm24.816-38.206v-65.0035c0-13.2854-3.383-23.8427-10.176-31.6534-7.008-7.8106-16.184-11.8147-27.574-11.8147-13.179 0-23.16 5.0654-29.757 15.1974l-6.416 10.7533-6.415-10.7533c-6.598-10.132-16.5782-15.1974-29.7568-15.1974-11.3907 0-20.5667 4.0041-27.5734 11.8147-6.7946 7.8107-10.1773 18.368-10.1773 31.6534v65.0035h25.7533v-63.0929c0-13.3 5.596-20.0506 16.7894-20.0506 12.376 0 18.5798 8.0079 18.5798 23.8426v34.5349h25.601v-34.5349c0-15.8347 6.203-23.8426 18.579-23.8426 11.193 0 16.789 6.7506 16.789 20.0506v63.0929z" fill="#505050" fill-rule="evenodd"/></g></svg>