<svg fill="none" height="22" viewBox="0 0 22 22" width="22" xmlns="http://www.w3.org/2000/svg"><path clip-rule="evenodd" d="m5 2h12v2h2v2h1v10h-1v2h-2v2h-12v-2h-2v-2h-1v-10h1v-2h2z" fill="#d9d9d9" fill-rule="evenodd"/><path d="m10 18.5h1" stroke="#5394e9"/><path d="m11 18.5h1" stroke="#5394e9"/><path d="m10 3.5h1" stroke="#f04472"/><path d="m11 3.5h1" stroke="#f04472"/><g stroke="#000"><path d="m6 20.5h10"/><path d="m6 20.5h10"/><path d="m6 20.5h10"/><path d="m6 1.5h10"/><path d="m1.5 16v-10"/><path d="m.5 14v-6"/><path d="m8 .5h6"/><path d="m20.5 16v-10"/><path d="m2 16.5h1"/><path d="m3 17.5h1"/><path d="m3 18.5h1"/><path d="m1 16.5h1"/><path d="m20 16.5h1"/><path d="m20 5.5h1"/><path d="m2 5.5h1"/><path d="m3 3.5h1"/><path d="m2 17.5h1"/><path d="m3 4.5h1"/><path d="m1 5.5h1"/><path d="m2 4.5h1"/><path d="m4 3.5h1"/><path d="m4 2.5h1"/><path d="m10 10.5h1"/><path d="m11 11.5h1"/><path d="m10 11.5h1"/><path d="m11 10.5h1"/><path d="m12 9.5h1"/><path d="m13 8.5h1"/><path d="m14 7.5h1"/><path d="m12 8.5h1"/><path d="m11 9.5h1"/><path d="m12 10.5h1"/><path d="m13 9.5h1"/><path d="m14 8.5h1"/><path d="m13 7.5h1"/><path d="m13 6.5h1"/><path d="m12 6.5h1"/><path d="m15 9.5h1"/><path d="m15 8.5h1"/><path d="m15 7.5h1"/><path d="m14 6.5h1"/><path d="m15 6.5h1"/><path d="m5 2.5h1"/><path d="m5 1.5h1"/><path d="m16 2.5h1"/><path d="m16 1.5h1"/><path d="m17 3.5h1"/><path d="m17 2.5h1"/><path d="m18 4.5h1"/><path d="m18 3.5h1"/><path d="m19 5.5h1"/><path d="m19 4.5h1"/><path d="m4 19.5h1"/><path d="m5 20.5h1"/><path d="m5 19.5h1"/><path d="m16 19.5h1"/><path d="m16 20.5h1"/><path d="m17 19.5h1"/><path d="m17 18.5h1"/><path d="m18 18.5h1"/><path d="m18 17.5h1"/><path d="m19 17.5h1"/><path d="m19 16.5h1"/><path d="m4 18.5h1"/><path d="m21.5 14v-6"/><path d="m8 21.5h6"/></g></svg>