<svg width="22" height="28" viewBox="0 0 22 28" fill="none" xmlns="http://www.w3.org/2000/svg">
<path fill-rule="evenodd" clip-rule="evenodd" d="M20 1H2V2H1V23H3V27H19V23H21V2H20V1Z" fill="white"/>
<line x1="0.5" y1="2" x2="0.5" y2="23" stroke="black"/>
<line x1="21.5" y1="2" x2="21.5" y2="23" stroke="black"/>
<line x1="1" y1="1.5" x2="2" y2="1.5" stroke="black"/>
<line x1="20" y1="1.5" x2="21" y2="1.5" stroke="black"/>
<line x1="2" y1="0.5" x2="20" y2="0.5" stroke="black"/>
<line x1="1" y1="23.5" x2="21" y2="23.5" stroke="black"/>
<line x1="3" y1="27.5" x2="19" y2="27.5" stroke="black"/>
<line x1="19.5" y1="24" x2="19.5" y2="27" stroke="black"/>
<line x1="2.5" y1="24" x2="2.5" y2="27" stroke="black"/>
<line x1="15" y1="25.5" x2="18" y2="25.5" stroke="black"/>
<line x1="13" y1="19.5" x2="19" y2="19.5" stroke="black"/>
<line x1="3" y1="19.5" x2="4" y2="19.5" stroke="#F04472"/>
<line x1="4" y1="19.5" x2="5" y2="19.5" stroke="#5394E9"/>
<line x1="4" y1="14.5" x2="6" y2="14.5" stroke="black"/>
<path d="M9 12.5H10" stroke="black"/>
<path d="M12 12.5H13" stroke="black"/>
<path d="M10 13H11" stroke="black"/>
<path d="M11 13H12" stroke="black"/>
<line x1="4" y1="14.5" x2="18" y2="14.5" stroke="black"/>
<line x1="4" y1="4.5" x2="18" y2="4.5" stroke="black"/>
<line x1="3.5" y1="5" x2="3.5" y2="14" stroke="black"/>
<line x1="18.5" y1="5" x2="18.5" y2="14" stroke="black"/>
<line x1="12.5" y1="7" x2="12.5" y2="10" stroke="black"/>
<line x1="9.5" y1="7" x2="9.5" y2="10" stroke="black"/>
<line x1="5.5" y1="7" x2="5.5" y2="10" stroke="black"/>
<line x1="16.5" y1="7" x2="16.5" y2="10" stroke="black"/>
<line x1="13" y1="6.5" x2="16" y2="6.5" stroke="black"/>
<line x1="14" y1="8.5" x2="15" y2="8.5" stroke="black"/>
<line x1="7" y1="8.5" x2="8" y2="8.5" stroke="black"/>
<line x1="13" y1="10.5" x2="16" y2="10.5" stroke="black"/>
<line x1="6" y1="6.5" x2="9" y2="6.5" stroke="black"/>
<line x1="6" y1="10.5" x2="9" y2="10.5" stroke="black"/>
</svg>
