<svg fill="none" height="28" viewBox="0 0 22 28" width="22" xmlns="http://www.w3.org/2000/svg"><path clip-rule="evenodd" d="m20 1h-18v1h-1v21h2v4h16v-4h2v-21h-1z" fill="#fff" fill-rule="evenodd"/><path d="m.5 2v21" stroke="#000"/><path d="m21.5 2v21" stroke="#000"/><path d="m1 1.5h1" stroke="#000"/><path d="m20 1.5h1" stroke="#000"/><path d="m2 .5h18" stroke="#000"/><path d="m1 23.5h20" stroke="#000"/><path d="m3 27.5h16" stroke="#000"/><path d="m19.5 24v3" stroke="#000"/><path d="m2.5 24v3" stroke="#000"/><path d="m15 25.5h3" stroke="#000"/><path d="m13 19.5h6" stroke="#000"/><path d="m3 19.5h1" stroke="#f04472"/><path d="m4 19.5h1" stroke="#5394e9"/><g stroke="#000"><path d="m4 14.5h2"/><path d="m9 12.5h1"/><path d="m12 12.5h1"/><path d="m10 13h1"/><path d="m11 13h1"/><path d="m4 14.5h14"/><path d="m4 4.5h14"/><path d="m3.5 5v9"/><path d="m18.5 5v9"/><path d="m12.5 7v3"/><path d="m9.5 7v3"/><path d="m5.5 7v3"/><path d="m16.5 7v3"/><path d="m13 6.5h3"/><path d="m14 8.5h1"/><path d="m7 8.5h1"/><path d="m13 10.5h3"/><path d="m6 6.5h3"/><path d="m6 10.5h3"/></g></svg>