<svg fill="none" height="86" viewBox="0 0 49 86" width="49" xmlns="http://www.w3.org/2000/svg"><path d="m.750488 42.7395c0 1.2229.497432 2.3002 1.388802 3.2328l38.69421 37.8224c.8185.8703 1.9475 1.3054 3.2012 1.3054 2.5273 0 4.4442-1.8958 4.4442-4.4442 0-1.2431-.4869-2.3204-1.2948-3.1801l-35.4835-34.7363 35.4835-34.73644c.8079-.8597 1.2948-1.9888 1.2948-3.1801 0-2.5485-1.9169-4.444298-4.4442-4.444298-1.2537 0-2.3827.435197-3.2012 1.305398l-38.69421 37.82254c-.89137.9326-1.388802 2.0099-1.388802 3.2329z" fill="#808080"/></svg>