<svg fill="none" height="85" viewBox="0 0 48 85" width="48" xmlns="http://www.w3.org/2000/svg"><path d="m47.7285 42.3608c0-1.223-.4457-2.3003-1.3888-3.2329l-38.6942-37.8225c-.8186-.870203-1.9064-1.3054-3.1495-1.3054-2.5379 0-4.496 1.8958-4.496 4.4443 0 1.1913.5386 2.3204 1.2948 3.1801l35.5353 34.7364-35.5353 34.7363c-.7562.8597-1.2948 1.937-1.2948 3.1801 0 2.5485 1.9581 4.4443 4.496 4.4443 1.2431 0 2.3309-.4352 3.1495-1.3054l38.6942-37.8225c.9431-.9326 1.3888-2.0099 1.3888-3.2328z" fill="#808080"/></svg>