<svg width="48" height="85" viewBox="0 0 48 85" fill="none" xmlns="http://www.w3.org/2000/svg">
<path d="M47.7285 42.3608C47.7285 41.1378 47.2828 40.0605 46.3397 39.1279L7.6455 1.3054C6.8269 0.435197 5.7391 0 4.496 0C1.9581 0 0 1.8958 0 4.4443C0 5.6356 0.5386 6.7647 1.2948 7.6244L36.8301 42.3608L1.2948 77.0971C0.5386 77.9568 0 79.0341 0 80.2772C0 82.8257 1.9581 84.7215 4.496 84.7215C5.7391 84.7215 6.8269 84.2863 7.6455 83.4161L46.3397 45.5936C47.2828 44.661 47.7285 43.5837 47.7285 42.3608Z" fill="gray"/>
</svg>
